<?xml version="1.0" standalone="no"?>
<svg xmlns:xlink="http://www.w3.org/1999/xlink" id="wave" style="transform:rotate(0deg); transition: 0.3s" viewBox="0 0 1440 150" version="1.1" xmlns="http://www.w3.org/2000/svg"><defs><linearGradient id="sw-gradient-0" x1="0" x2="0" y1="1" y2="0"><stop stop-color="rgba(62, 113.612, 243, 1)" offset="0%"/><stop stop-color="rgba(11, 237.641, 255, 1)" offset="100%"/></linearGradient></defs><path style="transform:translate(0, 0px); opacity:1" fill="url(#sw-gradient-0)" d="M0,105L26.7,92.5C53.3,80,107,55,160,55C213.3,55,267,80,320,75C373.3,70,427,35,480,20C533.3,5,587,10,640,22.5C693.3,35,747,55,800,67.5C853.3,80,907,85,960,85C1013.3,85,1067,80,1120,70C1173.3,60,1227,45,1280,47.5C1333.3,50,1387,70,1440,75C1493.3,80,1547,70,1600,72.5C1653.3,75,1707,90,1760,97.5C1813.3,105,1867,105,1920,90C1973.3,75,2027,45,2080,30C2133.3,15,2187,15,2240,20C2293.3,25,2347,35,2400,32.5C2453.3,30,2507,15,2560,15C2613.3,15,2667,30,2720,42.5C2773.3,55,2827,65,2880,75C2933.3,85,2987,95,3040,92.5C3093.3,90,3147,75,3200,60C3253.3,45,3307,30,3360,30C3413.3,30,3467,45,3520,57.5C3573.3,70,3627,80,3680,90C3733.3,100,3787,110,3813,115L3840,120L3840,150L3813.3,150C3786.7,150,3733,150,3680,150C3626.7,150,3573,150,3520,150C3466.7,150,3413,150,3360,150C3306.7,150,3253,150,3200,150C3146.7,150,3093,150,3040,150C2986.7,150,2933,150,2880,150C2826.7,150,2773,150,2720,150C2666.7,150,2613,150,2560,150C2506.7,150,2453,150,2400,150C2346.7,150,2293,150,2240,150C2186.7,150,2133,150,2080,150C2026.7,150,1973,150,1920,150C1866.7,150,1813,150,1760,150C1706.7,150,1653,150,1600,150C1546.7,150,1493,150,1440,150C1386.7,150,1333,150,1280,150C1226.7,150,1173,150,1120,150C1066.7,150,1013,150,960,150C906.7,150,853,150,800,150C746.7,150,693,150,640,150C586.7,150,533,150,480,150C426.7,150,373,150,320,150C266.7,150,213,150,160,150C106.7,150,53,150,27,150L0,150Z"/></svg>